<?xml version="1.0" encoding="UTF-8"?>
<svg xmlns="http://www.w3.org/2000/svg" version="1.1" xmlns:xlink="http://www.w3.org/1999/xlink" viewBox="0 0 365 86.1">
  <defs>
    <style>
      .cls-1 {
        fill: none;
      }

      .cls-2 {
        fill: #583f99;
      }

      .cls-3 {
        fill: #0072bc;
      }

      .cls-4 {
        fill: #00a88e;
      }

      .cls-5 {
        clip-path: url(#clippath);
      }
    </style>
    <clipPath id="clippath">
      <rect class="cls-1" x="-26.7" y="-38.5" width="419.5" height="163.8"/>
    </clipPath>
  </defs>
  <!-- Generator: Adobe Illustrator 28.6.0, SVG Export Plug-In . SVG Version: 1.2.0 Build 709)  -->
  <g>
    <g id="Layer_1">
      <polygon class="cls-2" points="2.7 71.2 2.7 44.1 39.1 23.8 39.1 37.4 14.8 50.9 14.8 64.4 2.7 71.2"/>
      <polygon class="cls-4" points="75.6 71.3 51.3 84.8 14.8 64.4 26.9 57.7 51.2 71.2 63.3 64.4 75.6 71.3"/>
      <polygon class="cls-3" points="63.3 23.9 39.1 10.3 39.1 23.8 51.2 30.6 51.2 57.7 63.3 64.4 63.3 23.9"/>
      <g class="cls-5">
        <path class="cls-3" d="M63,8.2c1,4.1-.7,8-3.9,8.8-3.2.8-6.5-1.9-7.6-5.9-1-4.1.7-8,3.9-8.8,3.2-.8,6.5,1.9,7.6,5.9"/>
        <rect class="cls-2" x="82.4" y="23.9" width="8.3" height="37.9"/>
        <polygon class="cls-2" points="97.8 23.9 105.5 23.9 123.2 47.2 123.2 23.9 131.4 23.9 131.4 61.8 124.3 61.8 106 37.7 106 61.8 97.8 61.8 97.8 23.9"/>
        <polygon class="cls-2" points="138.6 23.9 167.4 23.9 167.4 31.4 146.9 31.4 146.9 39.5 165 39.5 165 47.1 146.9 47.1 146.9 61.8 138.6 61.8 138.6 23.9"/>
        <path class="cls-2" d="M170.3,42.9h0c0-10.9,8.5-19.7,20.2-19.7s20.1,8.7,20.1,19.5h0c0,10.9-8.5,19.7-20.2,19.7s-20.1-8.7-20.1-19.5M201.9,42.9h0c0-6.6-4.8-12-11.5-12s-11.4,5.3-11.4,11.8h0c0,6.6,4.8,12,11.5,12s11.4-5.3,11.4-11.8"/>
        <path class="cls-2" d="M216.1,23.9h15.5c9,0,14.5,5.3,14.5,13.1h0c0,8.9-6.8,13.4-15.3,13.4h-6.3v11.4h-8.3V23.9ZM231,43c4.2,0,6.6-2.5,6.6-5.7h0c0-3.8-2.6-5.8-6.8-5.8h-6.4v11.6h6.6Z"/>
        <path class="cls-2" d="M261,23.6h7.7l16.2,38.2h-8.7l-3.5-8.5h-16l-3.5,8.5h-8.5l16.2-38.2ZM269.8,45.9l-5-12.3-5,12.3h10.1Z"/>
        <path class="cls-2" d="M290.2,23.9h17.3c4.8,0,8.5,1.3,11,3.8,2.2,2.2,3.2,5,3.2,8.7h0c0,6.2-3.3,10.1-8.1,11.9l9.3,13.5h-9.7l-8.1-12.1h-6.5v12.1h-8.3V23.9ZM307,42.3c4.1,0,6.4-2.1,6.4-5.4h0c0-3.7-2.4-5.5-6.5-5.5h-8.3v10.9h8.4Z"/>
        <polygon class="cls-2" points="328.2 23.9 336.6 23.9 336.6 40.4 351.8 23.9 362.1 23.9 346.6 39.9 362.7 61.8 352.7 61.8 340.9 45.6 336.6 50.2 336.6 61.8 328.2 61.8 328.2 23.9"/>
        <rect class="cls-3" x="82.4" y="69.9" width="1.6" height="8.9"/>
        <polygon class="cls-3" points="87.9 69.9 89.4 69.9 94.2 76.1 94.2 69.9 95.7 69.9 95.7 78.8 94.4 78.8 89.5 72.5 89.5 78.8 87.9 78.8 87.9 69.9"/>
        <path class="cls-3" d="M99,77.5l.9-1.1c.9.8,1.7,1.2,2.8,1.2s1.6-.5,1.6-1.1h0c0-.7-.4-1-2-1.4-1.9-.4-3-1-3-2.7h0c0-1.6,1.3-2.6,3.1-2.6s2.3.4,3.2,1.1l-.8,1.2c-.8-.6-1.6-.9-2.4-.9s-1.5.5-1.5,1.1h0c0,.7.4,1,2.1,1.4,1.9.5,2.9,1.1,2.9,2.6h0c0,1.7-1.3,2.7-3.2,2.7s-2.7-.5-3.7-1.4"/>
        <path class="cls-3" d="M109.3,69.9h3.5c2.1,0,3.4,1.2,3.4,3h0c0,2-1.6,3.1-3.6,3.1h-1.8v2.9h-1.6v-8.9ZM112.7,74.5c1.2,0,1.9-.7,1.9-1.6h0c0-1.1-.8-1.6-1.9-1.6h-1.8v3.2h1.8Z"/>
        <rect class="cls-3" x="119.4" y="69.9" width="1.6" height="8.9"/>
        <path class="cls-3" d="M124.9,69.9h4c1.1,0,2,.3,2.6.9.5.5.7,1.2.7,1.9h0c0,1.5-.9,2.4-2.1,2.7l2.4,3.4h-1.9l-2.2-3.1h-2v3.1h-1.6v-8.9ZM128.8,74.3c1.1,0,1.8-.6,1.8-1.5h0c0-1-.7-1.5-1.9-1.5h-2.3v3h2.3Z"/>
        <polygon class="cls-3" points="135.7 69.9 142.3 69.9 142.3 71.3 137.3 71.3 137.3 73.6 141.8 73.6 141.8 75 137.3 75 137.3 77.4 142.4 77.4 142.4 78.8 135.7 78.8 135.7 69.9"/>
        <path class="cls-3" d="M156.1,74.4h0c0-2.6,1.9-4.7,4.6-4.7s2.7.6,3.5,1.4l-1,1.2c-.7-.7-1.5-1.1-2.5-1.1-1.7,0-2.9,1.4-2.9,3.1h0c0,1.8,1.2,3.2,3,3.2s1.8-.4,2.6-1.2l1,1c-.9,1-2,1.6-3.6,1.6-2.6,0-4.6-2-4.6-4.6"/>
        <path class="cls-3" d="M166.9,74.4h0c0-2.5,1.9-4.7,4.7-4.7s4.7,2.1,4.7,4.6h0c0,2.5-1.9,4.7-4.7,4.7s-4.7-2.1-4.7-4.6M174.6,74.4h0c0-1.8-1.3-3.2-3-3.2s-3,1.4-3,3.1h0c0,1.8,1.3,3.2,3,3.2s3-1.4,3-3.1"/>
        <polygon class="cls-3" points="179.7 69.9 181.2 69.9 181.2 77.4 185.9 77.4 185.9 78.8 179.7 78.8 179.7 69.9"/>
        <polygon class="cls-3" points="189.1 69.9 190.7 69.9 190.7 77.4 195.4 77.4 195.4 78.8 189.1 78.8 189.1 69.9"/>
        <path class="cls-3" d="M201.7,69.8h1.5l3.9,9h-1.7l-.9-2.2h-4.2l-.9,2.2h-1.6l3.9-9ZM203.9,75.3l-1.5-3.6-1.5,3.6h3.1Z"/>
        <path class="cls-3" d="M210.2,69.9h4c1,0,1.8.3,2.3.8.4.4.6.9.6,1.5h0c0,1.1-.6,1.7-1.3,2,1.1.4,1.8.9,1.8,2.2h0c0,1.6-1.3,2.5-3.3,2.5h-4.1v-8.9ZM215.5,72.4c0-.7-.5-1.1-1.6-1.1h-2.3v2.4h2.1c1,0,1.7-.4,1.7-1.2h0ZM216,76.2c0-.8-.6-1.2-1.8-1.2h-2.5v2.5h2.6c1.1,0,1.7-.4,1.7-1.2h0Z"/>
        <path class="cls-3" d="M220.5,74.4h0c0-2.5,1.9-4.7,4.7-4.7s4.7,2.1,4.7,4.6h0c0,2.5-1.9,4.7-4.7,4.7s-4.7-2.1-4.7-4.6M228.2,74.4h0c0-1.8-1.3-3.2-3-3.2s-3,1.4-3,3.1h0c0,1.8,1.3,3.2,3,3.2s3-1.4,3-3.1"/>
        <path class="cls-3" d="M233.3,69.9h4c1.1,0,2,.3,2.6.9.5.5.7,1.2.7,1.9h0c0,1.5-.9,2.4-2.1,2.7l2.4,3.4h-1.9l-2.2-3.1h-2v3.1h-1.6v-8.9ZM237.2,74.3c1.1,0,1.8-.6,1.8-1.5h0c0-1-.7-1.5-1.9-1.5h-2.3v3h2.3Z"/>
        <path class="cls-3" d="M247.2,69.8h1.5l3.9,9h-1.7l-.9-2.2h-4.2l-.9,2.2h-1.6l3.9-9ZM249.5,75.3l-1.5-3.6-1.5,3.6h3.1Z"/>
        <polygon class="cls-3" points="256.8 71.3 253.9 71.3 253.9 69.9 261.2 69.9 261.2 71.3 258.3 71.3 258.3 78.8 256.8 78.8 256.8 71.3"/>
        <polygon class="cls-3" points="264.3 69.9 271 69.9 271 71.3 265.9 71.3 265.9 73.6 270.4 73.6 270.4 75 265.9 75 265.9 77.4 271 77.4 271 78.8 264.3 78.8 264.3 69.9"/>
        <rect class="cls-3" x="285.3" y="69.9" width="1.6" height="8.9"/>
        <polygon class="cls-3" points="290.8 69.9 292.2 69.9 297 76.1 297 69.9 298.6 69.9 298.6 78.8 297.2 78.8 292.3 72.5 292.3 78.8 290.8 78.8 290.8 69.9"/>
        <polygon class="cls-3" points="302.4 69.9 303.8 69.9 308.6 76.1 308.6 69.9 310.2 69.9 310.2 78.8 308.9 78.8 303.9 72.5 303.9 78.8 302.4 78.8 302.4 69.9"/>
        <path class="cls-3" d="M313.6,74.4h0c0-2.5,1.9-4.7,4.7-4.7s4.7,2.1,4.7,4.6h0c0,2.5-1.9,4.7-4.7,4.7s-4.7-2.1-4.7-4.6M321.3,74.4h0c0-1.8-1.3-3.2-3-3.2s-3,1.4-3,3.1h0c0,1.8,1.3,3.2,3,3.2s3-1.4,3-3.1"/>
        <polygon class="cls-3" points="325.1 69.9 326.8 69.9 329.5 76.8 332.2 69.9 333.9 69.9 330.2 78.9 328.8 78.9 325.1 69.9"/>
        <path class="cls-3" d="M338.9,69.8h1.5l3.9,9h-1.7l-.9-2.2h-4.2l-.9,2.2h-1.6l3.9-9ZM341.1,75.3l-1.5-3.6-1.5,3.6h3.1Z"/>
        <polygon class="cls-3" points="348.4 71.3 345.5 71.3 345.5 69.9 352.8 69.9 352.8 71.3 349.9 71.3 349.9 78.8 348.4 78.8 348.4 71.3"/>
        <polygon class="cls-3" points="356 69.9 362.6 69.9 362.6 71.3 357.5 71.3 357.5 73.6 362 73.6 362 75 357.5 75 357.5 77.4 362.7 77.4 362.7 78.8 356 78.8 356 69.9"/>
        <path class="cls-3" d="M150.8,74.5c0,.8-.6,1.4-1.4,1.4s-1.4-.6-1.4-1.4.6-1.4,1.4-1.4,1.4.6,1.4,1.4"/>
        <path class="cls-3" d="M279.5,74.5c0,.8-.6,1.4-1.4,1.4s-1.4-.6-1.4-1.4.6-1.4,1.4-1.4,1.4.6,1.4,1.4"/>
      </g>
    </g>
  </g>
</svg>