<svg width="1194" height="560" viewBox="0 0 1194 560" fill="none" xmlns="http://www.w3.org/2000/svg">
<mask id="path-1-inside-1_1083_52" fill="white">
<path fill-rule="evenodd" clip-rule="evenodd" d="M1179 0C1187.28 0 1194 6.71573 1194 15V458C1194 466.284 1187.28 473 1179 473H398C389.716 473 383 479.716 383 488V545C383 553.284 376.284 560 368 560H15C6.71573 560 0 553.284 0 545V125C0 116.716 6.71573 110 15 110H327C335.284 110 342 103.284 342 95V15C342 6.71573 348.716 0 357 0H1179Z"/>
</mask>
<path d="M1195 15C1195 6.16345 1187.84 -1 1179 -1V1C1186.73 1 1193 7.26801 1193 15H1195ZM1195 458V15H1193V458H1195ZM398 474H1179V472H398V474ZM384 545V488H382V545H384ZM15 561H368V559H15V561ZM-1 545C-1 553.837 6.16344 561 15 561V559C7.26801 559 1 552.732 1 545H-1ZM-1 125V545H1V125H-1ZM15 109C6.16345 109 -1 116.163 -1 125H1C1 117.268 7.26802 111 15 111V109ZM327 109H15V111H327V109ZM341 95C341 102.732 334.732 109 327 109V111C335.837 111 343 103.837 343 95H341ZM341 15V95H343V15H341ZM357 -1C348.163 -1 341 6.16344 341 15H343C343 7.26801 349.268 1 357 1V-1ZM1179 -1H357V1H1179V-1ZM382 545C382 552.732 375.732 559 368 559V561C376.837 561 384 553.837 384 545H382ZM398 472C389.163 472 382 479.163 382 488H384C384 480.268 390.268 474 398 474V472ZM1193 458C1193 465.732 1186.73 472 1179 472V474C1187.84 474 1195 466.837 1195 458H1193Z" fill="black" mask="url(#path-1-inside-1_1083_52)"/>
</svg>
