<svg width="320" height="632" viewBox="0 0 320 632" fill="none" xmlns="http://www.w3.org/2000/svg">
<mask id="path-1-inside-1_1097_230" fill="white">
<path fill-rule="evenodd" clip-rule="evenodd" d="M262 15C262 6.71573 255.284 0 247 0H15C6.71573 0 0 6.71571 0 15V617C0 625.284 6.71573 632 15 632H305C313.284 632 320 625.284 320 617V340C320 331.716 313.284 325 305 325H277C268.716 325 262 318.284 262 310V15Z"/>
</mask>
<path d="M15 1H247V-1H15V1ZM1 617V15H-1V617H1ZM305 631H15V633H305V631ZM319 340V617H321V340H319ZM305 324H277V326H305V324ZM263 310V15H261V310H263ZM277 324C269.268 324 263 317.732 263 310H261C261 318.837 268.163 326 277 326V324ZM321 340C321 331.163 313.837 324 305 324V326C312.732 326 319 332.268 319 340H321ZM305 633C313.837 633 321 625.837 321 617H319C319 624.732 312.732 631 305 631V633ZM-1 617C-1 625.837 6.16344 633 15 633V631C7.26801 631 1 624.732 1 617H-1ZM247 1C254.732 1 261 7.26801 261 15H263C263 6.16344 255.837 -1 247 -1V1ZM15 -1C6.16345 -1 -1 6.16343 -1 15H1C1 7.268 7.26801 1 15 1V-1Z" fill="black" mask="url(#path-1-inside-1_1097_230)"/>
</svg>
